<svg xmlns="http://www.w3.org/2000/svg" width="415" height="82" viewBox="0 0 415 82"><defs><style>.a{fill:#29cdf1;}.b{fill:#fafafa;}</style></defs><g transform="translate(0 0.237)"><rect class="a" width="415" height="82" rx="41" transform="translate(0 -0.237)"/><path class="b" d="M18.507,9.852a2.6,2.6,0,0,1,1.856.66,2.319,2.319,0,0,1,.7,1.774V28.577q0,4.743-2.64,7.176t-7.8,2.433A15.158,15.158,0,0,1,3.123,36.5,2.587,2.587,0,0,1,1.6,34.31a2.309,2.309,0,0,1,.412-1.444,1.446,1.446,0,0,1,1.155-.536,3.185,3.185,0,0,1,.907.165q.536.206,1.114.454a24.459,24.459,0,0,0,2.64.949,10.254,10.254,0,0,0,2.722.33q5.4,0,5.4-5.279v-2.64a6.425,6.425,0,0,1-2.64,2.64,8.407,8.407,0,0,1-3.959.907,8.96,8.96,0,0,1-4.7-1.237,8.842,8.842,0,0,1-3.176-3.547A11.392,11.392,0,0,1,.318,19.833,11.744,11.744,0,0,1,1.432,14.6a8.4,8.4,0,0,1,3.217-3.547,8.738,8.738,0,0,1,4.7-1.279,8.108,8.108,0,0,1,3.959.949,6.174,6.174,0,0,1,2.64,2.6V12.244a2.269,2.269,0,0,1,.7-1.732A2.6,2.6,0,0,1,18.507,9.852Zm-7.8,16a4.749,4.749,0,0,0,3.836-1.609,6.489,6.489,0,0,0,1.4-4.413,6.554,6.554,0,0,0-1.4-4.454,4.749,4.749,0,0,0-3.836-1.609,4.825,4.825,0,0,0-3.836,1.609,6.554,6.554,0,0,0-1.4,4.454,6.489,6.489,0,0,0,1.4,4.413A4.825,4.825,0,0,0,10.712,25.855Zm31.654-.949a1.331,1.331,0,0,1,1.114.536,2.162,2.162,0,0,1,.454,1.444,2.5,2.5,0,0,1-1.526,2.145,14.452,14.452,0,0,1-3.176,1.279,13.65,13.65,0,0,1-3.382.454,10.509,10.509,0,0,1-7.713-2.8,10.281,10.281,0,0,1-2.846-7.671A11.77,11.77,0,0,1,26.528,14.8a9.039,9.039,0,0,1,3.465-3.712,9.981,9.981,0,0,1,5.114-1.32,9.14,9.14,0,0,1,4.743,1.2,8.11,8.11,0,0,1,3.135,3.382A11.222,11.222,0,0,1,44.1,19.5q0,1.773-1.567,1.773H30.363a6.582,6.582,0,0,0,1.609,4.207,5.465,5.465,0,0,0,3.959,1.32,7.312,7.312,0,0,0,2.31-.33,21.943,21.943,0,0,0,2.31-.907A4.552,4.552,0,0,1,42.365,24.906ZM35.23,13.4a4.494,4.494,0,0,0-3.382,1.32,6.306,6.306,0,0,0-1.485,3.794h9.321a5.792,5.792,0,0,0-1.237-3.794A4.049,4.049,0,0,0,35.23,13.4ZM58.509,26.845q2.062.124,2.062,1.856a1.716,1.716,0,0,1-.825,1.526,3.86,3.86,0,0,1-2.268.412l-1.114-.082q-6.929-.495-6.929-7.424V14.142H47.373a2.707,2.707,0,0,1-1.732-.495,1.8,1.8,0,0,1-.577-1.444,1.8,1.8,0,0,1,.577-1.444,2.707,2.707,0,0,1,1.732-.495h2.062V6.47a2.319,2.319,0,0,1,.7-1.774,2.656,2.656,0,0,1,1.9-.66,2.6,2.6,0,0,1,1.856.66,2.319,2.319,0,0,1,.7,1.774v3.794H58.1a2.533,2.533,0,0,1,1.691.495,1.739,1.739,0,0,1,.619,1.444,1.739,1.739,0,0,1-.619,1.444,2.533,2.533,0,0,1-1.691.495H54.591V23.5q0,3.052,2.8,3.258Zm23.246,3.918A13.26,13.26,0,0,1,74.5,28.99a2.46,2.46,0,0,1-1.32-2.227,1.877,1.877,0,0,1,.454-1.32,1.405,1.405,0,0,1,1.114-.536,4.556,4.556,0,0,1,1.938.66,18.633,18.633,0,0,0,2.392.949,10.05,10.05,0,0,0,2.8.33,5.177,5.177,0,0,0,2.681-.577,1.784,1.784,0,0,0,.99-1.609,1.5,1.5,0,0,0-.412-1.114,3.252,3.252,0,0,0-1.4-.742,24.3,24.3,0,0,0-3.052-.825,11.977,11.977,0,0,1-5.279-2.1,4.71,4.71,0,0,1-1.567-3.753,5.327,5.327,0,0,1,1.072-3.258,6.759,6.759,0,0,1,2.928-2.268,10.657,10.657,0,0,1,4.289-.825,12.248,12.248,0,0,1,3.341.454,9.749,9.749,0,0,1,2.887,1.237,2.489,2.489,0,0,1,1.32,2.186,2.2,2.2,0,0,1-.454,1.4,1.405,1.405,0,0,1-1.114.536,2.64,2.64,0,0,1-.907-.165q-.412-.206-1.072-.577a14.888,14.888,0,0,0-2.062-.907,6.063,6.063,0,0,0-2.145-.33,4.254,4.254,0,0,0-2.433.619,1.968,1.968,0,0,0-.866,1.691,1.716,1.716,0,0,0,.907,1.567,12.994,12.994,0,0,0,3.506,1.072,20,20,0,0,1,4.331,1.32,4.932,4.932,0,0,1,2.227,1.856,5.259,5.259,0,0,1,.7,2.846,5.275,5.275,0,0,1-2.351,4.5A10.25,10.25,0,0,1,81.755,30.763Zm15.275-.082a2.8,2.8,0,0,1-1.856-.619,2.425,2.425,0,0,1-.7-1.856V12.286a2.292,2.292,0,0,1,.7-1.815,3.093,3.093,0,0,1,3.712,0,2.227,2.227,0,0,1,.742,1.815v15.92a2.354,2.354,0,0,1-.742,1.856A2.8,2.8,0,0,1,97.03,30.681Zm0-24.5A3.205,3.205,0,0,1,94.8,5.439a2.663,2.663,0,0,1-.825-2.021,2.533,2.533,0,0,1,.825-1.98A3.205,3.205,0,0,1,97.03.7a3.144,3.144,0,0,1,2.186.742,2.477,2.477,0,0,1,.866,1.98,2.663,2.663,0,0,1-.825,2.021A3.205,3.205,0,0,1,97.03,6.181ZM128.908,9.77a6.328,6.328,0,0,1,5.032,1.98q1.773,1.938,1.773,6.31V28.206a2.354,2.354,0,0,1-.742,1.856,2.7,2.7,0,0,1-1.856.619,2.8,2.8,0,0,1-1.856-.619,2.425,2.425,0,0,1-.7-1.856V18.06a4.914,4.914,0,0,0-.825-3.217,2.914,2.914,0,0,0-2.433-.99,4.012,4.012,0,0,0-3.217,1.4,5.492,5.492,0,0,0-1.2,3.753v9.2a2.354,2.354,0,0,1-.742,1.856,2.642,2.642,0,0,1-1.815.619,2.8,2.8,0,0,1-1.856-.619,2.354,2.354,0,0,1-.742-1.856V18.06a4.914,4.914,0,0,0-.825-3.217,2.914,2.914,0,0,0-2.433-.99,4.012,4.012,0,0,0-3.217,1.4,5.621,5.621,0,0,0-1.155,3.753v9.2a2.354,2.354,0,0,1-.742,1.856,3.093,3.093,0,0,1-3.712,0,2.425,2.425,0,0,1-.7-1.856V12.244a2.178,2.178,0,0,1,.742-1.774,2.8,2.8,0,0,1,1.856-.619,2.43,2.43,0,0,1,1.732.619,2.064,2.064,0,0,1,.7,1.691v.99a6.506,6.506,0,0,1,2.516-2.516,7.62,7.62,0,0,1,3.671-.866q4.537,0,6.063,3.794a6.816,6.816,0,0,1,2.681-2.763A7.812,7.812,0,0,1,128.908,9.77Zm27.966.082a2.656,2.656,0,0,1,1.9.66,2.319,2.319,0,0,1,.7,1.774v16a2.207,2.207,0,0,1-.742,1.732,2.6,2.6,0,0,1-1.856.66,2.488,2.488,0,0,1-1.773-.619,2.206,2.206,0,0,1-.66-1.691V27.34a6.718,6.718,0,0,1-2.557,2.557,7.532,7.532,0,0,1-3.63.866q-7.424,0-7.424-8.331V12.286a2.319,2.319,0,0,1,.7-1.774,2.6,2.6,0,0,1,1.856-.66,2.656,2.656,0,0,1,1.9.66,2.319,2.319,0,0,1,.7,1.774V22.473a4.867,4.867,0,0,0,.866,3.176,3.359,3.359,0,0,0,2.722,1.031,4.406,4.406,0,0,0,3.423-1.4,5.4,5.4,0,0,0,1.32-3.794v-9.2a2.319,2.319,0,0,1,.7-1.774A2.6,2.6,0,0,1,156.874,9.852ZM167.4,30.681a2.8,2.8,0,0,1-1.856-.619,2.425,2.425,0,0,1-.7-1.856V3.583a2.292,2.292,0,0,1,.7-1.815,3.093,3.093,0,0,1,3.712,0,2.227,2.227,0,0,1,.742,1.815V28.206a2.354,2.354,0,0,1-.742,1.856A2.8,2.8,0,0,1,167.4,30.681Zm15.215.082a13.26,13.26,0,0,1-7.259-1.774,2.46,2.46,0,0,1-1.32-2.227,1.877,1.877,0,0,1,.454-1.32,1.405,1.405,0,0,1,1.114-.536,4.556,4.556,0,0,1,1.938.66,18.634,18.634,0,0,0,2.392.949,10.05,10.05,0,0,0,2.8.33,5.177,5.177,0,0,0,2.681-.577,1.784,1.784,0,0,0,.99-1.609,1.5,1.5,0,0,0-.412-1.114,3.252,3.252,0,0,0-1.4-.742,24.3,24.3,0,0,0-3.052-.825,11.977,11.977,0,0,1-5.279-2.1,4.71,4.71,0,0,1-1.567-3.753,5.327,5.327,0,0,1,1.072-3.258,6.759,6.759,0,0,1,2.928-2.268,10.657,10.657,0,0,1,4.289-.825,12.248,12.248,0,0,1,3.341.454,9.749,9.749,0,0,1,2.887,1.237,2.489,2.489,0,0,1,1.32,2.186,2.2,2.2,0,0,1-.454,1.4,1.405,1.405,0,0,1-1.114.536,2.64,2.64,0,0,1-.907-.165q-.412-.206-1.072-.577a14.888,14.888,0,0,0-2.062-.907,6.063,6.063,0,0,0-2.145-.33,4.254,4.254,0,0,0-2.433.619,1.968,1.968,0,0,0-.866,1.691,1.716,1.716,0,0,0,.907,1.567,12.993,12.993,0,0,0,3.506,1.072,20,20,0,0,1,4.331,1.32,4.932,4.932,0,0,1,2.227,1.856,5.259,5.259,0,0,1,.7,2.846,5.275,5.275,0,0,1-2.351,4.5A10.25,10.25,0,0,1,182.61,30.763ZM205.6,26.845q2.062.124,2.062,1.856a1.716,1.716,0,0,1-.825,1.526,3.86,3.86,0,0,1-2.268.412l-1.114-.082q-6.929-.495-6.929-7.424V14.142h-2.062a2.706,2.706,0,0,1-1.732-.495,1.8,1.8,0,0,1-.577-1.444,1.8,1.8,0,0,1,.577-1.444,2.706,2.706,0,0,1,1.732-.495h2.062V6.47a2.319,2.319,0,0,1,.7-1.774,2.656,2.656,0,0,1,1.9-.66,2.6,2.6,0,0,1,1.856.66,2.319,2.319,0,0,1,.7,1.774v3.794h3.506a2.533,2.533,0,0,1,1.691.495A1.739,1.739,0,0,1,207.5,12.2a1.739,1.739,0,0,1-.619,1.444,2.533,2.533,0,0,1-1.691.495h-3.506V23.5q0,3.052,2.8,3.258Zm16.01-16.993a2.22,2.22,0,0,1,1.691.454,2.014,2.014,0,0,1,.619,1.609,2.247,2.247,0,0,1-.536,1.65,3.294,3.294,0,0,1-1.938.7l-1.237.124a5.09,5.09,0,0,0-3.588,1.65,5.461,5.461,0,0,0-1.114,3.506v8.661a2.354,2.354,0,0,1-.742,1.856,3.093,3.093,0,0,1-3.712,0,2.425,2.425,0,0,1-.7-1.856V12.244a2.24,2.24,0,0,1,.7-1.774,2.74,2.74,0,0,1,1.815-.619,2.43,2.43,0,0,1,1.732.619,2.127,2.127,0,0,1,.66,1.691v1.65a6.148,6.148,0,0,1,2.31-2.8,7.27,7.27,0,0,1,3.465-1.114ZM241.7,24.906a1.331,1.331,0,0,1,1.114.536,2.162,2.162,0,0,1,.454,1.444,2.5,2.5,0,0,1-1.526,2.145,14.452,14.452,0,0,1-3.176,1.279,13.65,13.65,0,0,1-3.382.454,10.509,10.509,0,0,1-7.713-2.8,10.281,10.281,0,0,1-2.846-7.671,11.77,11.77,0,0,1,1.237-5.485,9.039,9.039,0,0,1,3.465-3.712,9.981,9.981,0,0,1,5.114-1.32,9.14,9.14,0,0,1,4.743,1.2,8.11,8.11,0,0,1,3.135,3.382,11.222,11.222,0,0,1,1.114,5.156q0,1.773-1.567,1.773H229.7a6.582,6.582,0,0,0,1.608,4.207,5.465,5.465,0,0,0,3.959,1.32,7.312,7.312,0,0,0,2.31-.33,21.943,21.943,0,0,0,2.31-.907A4.552,4.552,0,0,1,241.7,24.906ZM234.564,13.4a4.494,4.494,0,0,0-3.382,1.32,6.305,6.305,0,0,0-1.485,3.794h9.321a5.792,5.792,0,0,0-1.237-3.794A4.049,4.049,0,0,0,234.564,13.4ZM256.393,9.77q4.207,0,6.228,2.1,2.062,2.062,2.062,6.31V28.247a2.4,2.4,0,0,1-.66,1.774,2.548,2.548,0,0,1-1.815.619,2.485,2.485,0,0,1-1.774-.66,2.342,2.342,0,0,1-.66-1.732V27.34a5.351,5.351,0,0,1-2.227,2.516,6.511,6.511,0,0,1-3.465.907,8.093,8.093,0,0,1-3.671-.825,6.53,6.53,0,0,1-2.6-2.268,5.732,5.732,0,0,1-.949-3.217,5.157,5.157,0,0,1,1.114-3.506,6.939,6.939,0,0,1,3.712-1.856,33.616,33.616,0,0,1,7.053-.577h1.031v-.949a4.142,4.142,0,0,0-.866-2.928,3.637,3.637,0,0,0-2.8-.949,8.44,8.44,0,0,0-2.433.371,28.366,28.366,0,0,0-2.928.99,4.123,4.123,0,0,1-1.567.536,1.614,1.614,0,0,1-1.237-.536,2.1,2.1,0,0,1-.454-1.4,2.106,2.106,0,0,1,.33-1.2,3.43,3.43,0,0,1,1.2-.99,13.472,13.472,0,0,1,3.423-1.237A18.044,18.044,0,0,1,256.393,9.77Zm-1.279,17.281a4.372,4.372,0,0,0,3.341-1.361,5.026,5.026,0,0,0,1.32-3.588v-.866h-.742a28.453,28.453,0,0,0-4.289.247,4.165,4.165,0,0,0-2.186.866,2.206,2.206,0,0,0-.66,1.691,2.894,2.894,0,0,0,.907,2.186A3.4,3.4,0,0,0,255.114,27.051ZM293.886,9.77a6.328,6.328,0,0,1,5.032,1.98q1.774,1.938,1.773,6.31V28.206a2.354,2.354,0,0,1-.742,1.856,2.7,2.7,0,0,1-1.856.619,2.8,2.8,0,0,1-1.856-.619,2.425,2.425,0,0,1-.7-1.856V18.06a4.914,4.914,0,0,0-.825-3.217,2.914,2.914,0,0,0-2.433-.99,4.012,4.012,0,0,0-3.217,1.4,5.492,5.492,0,0,0-1.2,3.753v9.2a2.354,2.354,0,0,1-.742,1.856,2.642,2.642,0,0,1-1.815.619,2.8,2.8,0,0,1-1.856-.619,2.354,2.354,0,0,1-.742-1.856V18.06a4.914,4.914,0,0,0-.825-3.217,2.914,2.914,0,0,0-2.433-.99,4.012,4.012,0,0,0-3.217,1.4,5.621,5.621,0,0,0-1.155,3.753v9.2a2.353,2.353,0,0,1-.742,1.856,3.093,3.093,0,0,1-3.712,0,2.425,2.425,0,0,1-.7-1.856V12.244a2.178,2.178,0,0,1,.742-1.774,2.8,2.8,0,0,1,1.856-.619,2.43,2.43,0,0,1,1.732.619,2.064,2.064,0,0,1,.7,1.691v.99a6.506,6.506,0,0,1,2.516-2.516,7.62,7.62,0,0,1,3.671-.866q4.537,0,6.063,3.794a6.815,6.815,0,0,1,2.681-2.763A7.812,7.812,0,0,1,293.886,9.77Z" transform="translate(57.283 20.716)"/></g></svg>