<svg xmlns="http://www.w3.org/2000/svg" xmlns:xlink="http://www.w3.org/1999/xlink" width="2810.863" height="1172" viewBox="0 0 2810.863 1172"><defs><style>.a{fill:url(#a);}.b{fill:url(#d);}.c{fill:#29cdf1;}.d{fill:#fff;}.e{filter:url(#e);}.f{filter:url(#b);}</style><radialGradient id="a" cx="1.038" cy="-0.454" r="3.709" gradientTransform="matrix(0, 1, 0.631, 0, 1.325, -1.492)" gradientUnits="objectBoundingBox"><stop offset="0" stop-color="#fff"/><stop offset="0.429" stop-color="#29cdf1"/><stop offset="0.632" stop-color="#00add3"/><stop offset="1" stop-color="#29cdf1"/></radialGradient><filter id="b" x="0" y="0" width="2810.863" height="1172" filterUnits="userSpaceOnUse"><feOffset dy="3" input="SourceAlpha"/><feGaussianBlur stdDeviation="15" result="c"/><feFlood flood-opacity="0.161"/><feComposite operator="in" in2="c"/><feComposite in="SourceGraphic"/></filter><radialGradient id="d" cx="1.379" cy="0.56" r="1.444" gradientTransform="translate(1.597 -0.312) rotate(136.878)" gradientUnits="objectBoundingBox"><stop offset="0" stop-color="#77e7ff" stop-opacity="0.333"/><stop offset="1" stop-color="#29cdf1"/></radialGradient><filter id="e" x="1349.863" y="38" width="986" height="986" filterUnits="userSpaceOnUse"><feOffset input="SourceAlpha"/><feGaussianBlur stdDeviation="15" result="f"/><feFlood flood-opacity="0.161"/><feComposite operator="in" in2="f"/><feComposite in="SourceGraphic"/></filter></defs><g transform="translate(45 42)"><g class="f" transform="matrix(1, 0, 0, 1, -45, -42)"><path class="a" d="M0,869.84V809.851H.221V0H2709.032V809.851h11.832c-649.43,14.616-628.925,130.656-1454.585,236.9q-43.578,5.608-90.4,11.178C1033.454,1074.848,906.892,1082,794.751,1082,183.822,1082.007,0,869.84,0,869.84Z" transform="translate(45 42)"/></g><g transform="translate(1349.863 41)"><g class="e" transform="matrix(1, 0, 0, 1, -1394.86, -83)"><circle class="b" cx="448" cy="448" r="448" transform="translate(1394.86 83)"/></g><g transform="translate(208.602 206.895)"><g transform="translate(0)"><path class="c" d="M239.4,478.807c132.219,0,239.4-107.185,239.4-239.4S371.622,0,239.4,0,0,107.185,0,239.4,107.185,478.807,239.4,478.807Z"/><path class="d" d="M73.89,230.289A119.7,119.7,0,0,1,119.7,0c24.9,0,49.107,8.426,70.012,24.375A129.673,129.673,0,0,1,232.746,82.7l-60.609,29.569L91.526,71.96a7.22,7.22,0,0,0-3.218-.761c-.105,0-.211,0-.316.009a7.184,7.184,0,0,0-6.858,7.174v84.494a7.189,7.189,0,0,0,6.858,7.174c.106,0,.215.009.321.009a7.276,7.276,0,0,0,3.213-.761l48.337-24.169,34.689-17.347,58.354,28.464a129.6,129.6,0,0,1-43,58.624C168.96,230.917,144.681,239.4,119.7,239.4A119.1,119.1,0,0,1,73.89,230.289ZM93.1,83.522l71.818,35.909L93.1,155.34Z" transform="translate(124.801 119.706)"/></g></g></g></g></svg>