<svg xmlns="http://www.w3.org/2000/svg" xmlns:xlink="http://www.w3.org/1999/xlink" width="2010" height="1120.17" viewBox="0 0 2010 1120.17"><defs><style>.a{fill:#29cdf1;}.b{filter:url(#a);}</style><filter id="a" x="0" y="0" width="2010" height="1120.17" filterUnits="userSpaceOnUse"><feOffset dy="3" input="SourceAlpha"/><feGaussianBlur stdDeviation="15" result="b"/><feFlood flood-opacity="0.161"/><feComposite operator="in" in2="b"/><feComposite in="SourceGraphic"/></filter></defs><g class="b" transform="matrix(1, 0, 0, 1, 0, 0)"><path class="a" d="M0,759.572H1920v27.059h-64c-64,0-192,0-320,40.589s-256,121.77-384,144.348c-128,22.24-256-13.276-384-40.59-128-26.806-256-45.41-384-27.06C256,921.931,128,976.05,64,1003.11L0,1030.17Zm0,0V257.058L64,228.5c64-28.562,192-85.686,320-104.7,128-19.369,256,.267,384,28.562,128,28.83,256,66.317,384,42.843,128-23.832,256-109.517,384-152.361S1792,0,1856,0h64V759.572Z" transform="translate(45 42)"/></g></svg>