<svg xmlns="http://www.w3.org/2000/svg" xmlns:xlink="http://www.w3.org/1999/xlink" width="1077" height="1077" viewBox="0 0 1077 1077"><defs><style>.a{fill:url(#a);}.b{fill:#29cdf1;}.c{fill:#fff;}.d{filter:url(#b);}</style><radialGradient id="a" cx="1.379" cy="0.56" r="1.444" gradientTransform="translate(1.597 -0.312) rotate(136.878)" gradientUnits="objectBoundingBox"><stop offset="0" stop-color="#77e7ff" stop-opacity="0.333"/><stop offset="1" stop-color="#29cdf1"/></radialGradient><filter id="b" x="0" y="0" width="1077" height="1077" filterUnits="userSpaceOnUse"><feOffset input="SourceAlpha"/><feGaussianBlur stdDeviation="15" result="c"/><feFlood flood-opacity="0.161"/><feComposite operator="in" in2="c"/><feComposite in="SourceGraphic"/></filter></defs><g transform="translate(45 45)"><g class="d" transform="matrix(1, 0, 0, 1, -45, -45)"><circle class="a" cx="493.5" cy="493.5" r="493.5" transform="translate(45 45)"/></g><g transform="translate(229.881 228)"><g transform="translate(0)"><path class="b" d="M263.825,527.65c145.706,0,263.825-118.118,263.825-263.825S409.531,0,263.825,0,0,118.118,0,263.825,118.118,527.65,263.825,527.65Z"/><path class="c" d="M81.428,253.78A131.909,131.909,0,0,1,131.912,0c27.442,0,54.117,9.285,77.154,26.861a142.9,142.9,0,0,1,47.423,64.271L189.7,123.718,100.863,79.3a7.956,7.956,0,0,0-3.546-.839c-.116,0-.232.005-.349.01a7.917,7.917,0,0,0-7.557,7.906v93.113a7.922,7.922,0,0,0,7.557,7.906c.117.005.237.01.354.01a8.019,8.019,0,0,0,3.541-.839l53.268-26.634,38.228-19.117,64.307,31.368a142.823,142.823,0,0,1-47.382,64.6c-23.088,17.682-49.843,27.033-77.371,27.033A131.254,131.254,0,0,1,81.428,253.78ZM102.6,92.042l79.144,39.572L102.6,171.186Z" transform="translate(137.532 131.918)"/></g></g></g></svg>