<svg xmlns="http://www.w3.org/2000/svg" width="71.317" height="71.317" viewBox="0 0 71.317 71.317"><defs><style>.a{fill:#29cdf1;}.b{fill:#fff;}</style></defs><path class="a" d="M35.659,71.317A35.659,35.659,0,1,0,0,35.659,35.659,35.659,0,0,0,35.659,71.317Z"/><path class="b" d="M41.329,23.5c9.847,0,17.829,8.915,17.829,17.829S51.176,59.159,41.329,59.159a17.829,17.829,0,0,1,0-35.659Z" transform="translate(-5.671 -5.671)"/><path class="a" d="M55.409,44.68l14.62-7.132V51.811Z" transform="translate(-13.37 -9.061)"/><path class="a" d="M53.561,43.885a1.07,1.07,0,0,1,0,1.914l-5.385,2.692-7.2,3.6a1.07,1.07,0,0,1-1.548-.957V38.549a1.07,1.07,0,0,1,1.548-.957Z" transform="translate(-9.514 -9.044)"/><path class="b" d="M52.476,45.247,41.779,50.6V39.9Z" transform="translate(-10.081 -9.628)"/></svg>