<svg xmlns="http://www.w3.org/2000/svg" xmlns:xlink="http://www.w3.org/1999/xlink" width="423" height="143" viewBox="0 0 423 143"><defs><style>.a{fill:#fff;}.b{fill:#29cdf1;}.c{filter:url(#a);}</style><filter id="a" x="0" y="0" width="423" height="143" filterUnits="userSpaceOnUse"><feOffset dy="5" input="SourceAlpha"/><feGaussianBlur stdDeviation="10" result="b"/><feFlood flood-opacity="0.161"/><feComposite operator="in" in2="b"/><feComposite in="SourceGraphic"/></filter></defs><g transform="translate(30 25)"><g class="c" transform="matrix(1, 0, 0, 1, -30, -25)"><rect class="a" width="363" height="83" rx="41.5" transform="translate(30 25)"/></g><path class="b" d="M14.528,7.849a2.029,2.029,0,0,1,1.45.516,1.812,1.812,0,0,1,.548,1.386V22.478a7.251,7.251,0,0,1-2.062,5.607q-2.062,1.9-6.09,1.9a11.842,11.842,0,0,1-5.864-1.321,2.021,2.021,0,0,1-1.192-1.708,1.8,1.8,0,0,1,.322-1.128,1.13,1.13,0,0,1,.9-.419,2.488,2.488,0,0,1,.709.129q.419.161.87.354a19.108,19.108,0,0,0,2.062.741,8.011,8.011,0,0,0,2.127.258q4.221,0,4.221-4.124V20.706a5.02,5.02,0,0,1-2.062,2.062,6.567,6.567,0,0,1-3.093.709A7,7,0,0,1,3.7,22.51,6.908,6.908,0,0,1,1.22,19.739a8.9,8.9,0,0,1-.9-4.092,9.175,9.175,0,0,1,.87-4.092A6.566,6.566,0,0,1,3.7,8.784a6.827,6.827,0,0,1,3.673-1,6.334,6.334,0,0,1,3.093.741,4.824,4.824,0,0,1,2.062,2.03V9.718a1.772,1.772,0,0,1,.548-1.353A2.03,2.03,0,0,1,14.528,7.849Zm-6.09,12.5a3.71,3.71,0,0,0,3-1.257,5.069,5.069,0,0,0,1.1-3.448,5.12,5.12,0,0,0-1.1-3.48,3.71,3.71,0,0,0-3-1.257,3.769,3.769,0,0,0-3,1.257,5.12,5.12,0,0,0-1.1,3.48,5.069,5.069,0,0,0,1.1,3.448A3.769,3.769,0,0,0,8.438,20.351Zm24.729-.741a1.04,1.04,0,0,1,.87.419,1.689,1.689,0,0,1,.354,1.128A1.953,1.953,0,0,1,33.2,22.832a11.29,11.29,0,0,1-2.481,1,10.664,10.664,0,0,1-2.642.354,8.21,8.21,0,0,1-6.025-2.191A8.032,8.032,0,0,1,19.827,16a9.2,9.2,0,0,1,.967-4.285,7.061,7.061,0,0,1,2.707-2.9,7.8,7.8,0,0,1,4-1.031,7.14,7.14,0,0,1,3.705.934,6.336,6.336,0,0,1,2.449,2.642,8.767,8.767,0,0,1,.87,4.028q0,1.386-1.224,1.386H23.791a5.142,5.142,0,0,0,1.257,3.287,4.269,4.269,0,0,0,3.093,1.031,5.712,5.712,0,0,0,1.8-.258,17.143,17.143,0,0,0,1.8-.709A3.556,3.556,0,0,1,33.167,19.61Zm-5.574-8.99a3.511,3.511,0,0,0-2.642,1.031,4.926,4.926,0,0,0-1.16,2.964h7.282a4.525,4.525,0,0,0-.967-2.964A3.163,3.163,0,0,0,27.593,10.62Zm18.186,10.5q1.611.1,1.611,1.45a1.341,1.341,0,0,1-.644,1.192,3.016,3.016,0,0,1-1.772.322l-.87-.064q-5.413-.387-5.413-5.8V11.2H37.079a2.114,2.114,0,0,1-1.353-.387,1.4,1.4,0,0,1-.451-1.128,1.4,1.4,0,0,1,.451-1.128,2.114,2.114,0,0,1,1.353-.387H38.69V5.207a1.812,1.812,0,0,1,.548-1.386,2.075,2.075,0,0,1,1.482-.516,2.029,2.029,0,0,1,1.45.516,1.812,1.812,0,0,1,.548,1.386V8.171h2.739a1.979,1.979,0,0,1,1.321.387,1.359,1.359,0,0,1,.483,1.128,1.359,1.359,0,0,1-.483,1.128,1.979,1.979,0,0,1-1.321.387H42.718v7.314q0,2.384,2.191,2.545ZM63.94,24.185A10.36,10.36,0,0,1,58.269,22.8a1.922,1.922,0,0,1-1.031-1.74,1.466,1.466,0,0,1,.354-1.031,1.1,1.1,0,0,1,.87-.419,3.559,3.559,0,0,1,1.514.516,14.557,14.557,0,0,0,1.869.741,7.852,7.852,0,0,0,2.191.258,4.045,4.045,0,0,0,2.094-.451,1.393,1.393,0,0,0,.773-1.257,1.176,1.176,0,0,0-.322-.87,2.54,2.54,0,0,0-1.1-.58,18.982,18.982,0,0,0-2.384-.644,9.357,9.357,0,0,1-4.124-1.643,3.679,3.679,0,0,1-1.224-2.932,4.162,4.162,0,0,1,.838-2.545,5.28,5.28,0,0,1,2.288-1.772,8.325,8.325,0,0,1,3.351-.644,9.568,9.568,0,0,1,2.61.354,7.617,7.617,0,0,1,2.256.967,1.945,1.945,0,0,1,1.031,1.708,1.719,1.719,0,0,1-.354,1.1,1.1,1.1,0,0,1-.87.419,2.062,2.062,0,0,1-.709-.129q-.322-.161-.838-.451a11.631,11.631,0,0,0-1.611-.709,4.737,4.737,0,0,0-1.676-.258,3.323,3.323,0,0,0-1.9.483,1.538,1.538,0,0,0-.677,1.321A1.341,1.341,0,0,0,62.2,13.81a10.151,10.151,0,0,0,2.739.838,15.626,15.626,0,0,1,3.383,1.031,3.853,3.853,0,0,1,1.74,1.45,4.109,4.109,0,0,1,.548,2.223,4.121,4.121,0,0,1-1.837,3.512A8.007,8.007,0,0,1,63.94,24.185Zm11.933-.064a2.188,2.188,0,0,1-1.45-.483,1.9,1.9,0,0,1-.548-1.45V9.75a1.791,1.791,0,0,1,.548-1.418,2.417,2.417,0,0,1,2.9,0A1.74,1.74,0,0,1,77.9,9.75V22.188a1.839,1.839,0,0,1-.58,1.45A2.188,2.188,0,0,1,75.873,24.121Zm0-19.14a2.5,2.5,0,0,1-1.74-.58,2.08,2.08,0,0,1-.644-1.579,1.979,1.979,0,0,1,.644-1.547A2.5,2.5,0,0,1,75.873.7a2.456,2.456,0,0,1,1.708.58,1.935,1.935,0,0,1,.677,1.547A2.08,2.08,0,0,1,77.613,4.4,2.5,2.5,0,0,1,75.873,4.981Zm24.9,2.8a4.943,4.943,0,0,1,3.931,1.547q1.386,1.514,1.386,4.93v7.926a1.839,1.839,0,0,1-.58,1.45,2.111,2.111,0,0,1-1.45.483,2.188,2.188,0,0,1-1.45-.483,1.9,1.9,0,0,1-.548-1.45V14.261a3.839,3.839,0,0,0-.644-2.513,2.277,2.277,0,0,0-1.9-.773,3.134,3.134,0,0,0-2.513,1.1A4.29,4.29,0,0,0,96.073,15v7.185a1.839,1.839,0,0,1-.58,1.45,2.064,2.064,0,0,1-1.418.483,2.188,2.188,0,0,1-1.45-.483,1.839,1.839,0,0,1-.58-1.45V14.261a3.839,3.839,0,0,0-.644-2.513,2.277,2.277,0,0,0-1.9-.773,3.134,3.134,0,0,0-2.513,1.1,4.391,4.391,0,0,0-.9,2.932v7.185a1.839,1.839,0,0,1-.58,1.45,2.417,2.417,0,0,1-2.9,0,1.9,1.9,0,0,1-.548-1.45V9.718a1.7,1.7,0,0,1,.58-1.386,2.188,2.188,0,0,1,1.45-.483,1.9,1.9,0,0,1,1.353.483,1.613,1.613,0,0,1,.548,1.321v.773a5.083,5.083,0,0,1,1.966-1.966,5.953,5.953,0,0,1,2.868-.677,4.617,4.617,0,0,1,4.737,2.964A5.325,5.325,0,0,1,97.652,8.59,6.1,6.1,0,0,1,100.777,7.785Zm21.848.064a2.075,2.075,0,0,1,1.482.516,1.812,1.812,0,0,1,.548,1.386v12.5a1.724,1.724,0,0,1-.58,1.353,2.029,2.029,0,0,1-1.45.516,1.944,1.944,0,0,1-1.386-.483,1.723,1.723,0,0,1-.516-1.321v-.806a5.248,5.248,0,0,1-2,2,5.885,5.885,0,0,1-2.835.677q-5.8,0-5.8-6.509V9.75a1.812,1.812,0,0,1,.548-1.386,2.029,2.029,0,0,1,1.45-.516,2.075,2.075,0,0,1,1.482.516,1.812,1.812,0,0,1,.548,1.386v7.959a3.8,3.8,0,0,0,.677,2.481,2.624,2.624,0,0,0,2.127.806,3.442,3.442,0,0,0,2.674-1.1,4.222,4.222,0,0,0,1.031-2.964V9.75a1.812,1.812,0,0,1,.548-1.386A2.029,2.029,0,0,1,122.625,7.849Zm8.22,16.272a2.188,2.188,0,0,1-1.45-.483,1.9,1.9,0,0,1-.548-1.45V2.952a1.791,1.791,0,0,1,.548-1.418,2.417,2.417,0,0,1,2.9,0,1.74,1.74,0,0,1,.58,1.418V22.188a1.839,1.839,0,0,1-.58,1.45A2.188,2.188,0,0,1,130.845,24.121Zm11.887.064a10.36,10.36,0,0,1-5.671-1.386,1.922,1.922,0,0,1-1.031-1.74,1.466,1.466,0,0,1,.354-1.031,1.1,1.1,0,0,1,.87-.419,3.559,3.559,0,0,1,1.514.516,14.557,14.557,0,0,0,1.869.741,7.852,7.852,0,0,0,2.191.258,4.045,4.045,0,0,0,2.094-.451,1.393,1.393,0,0,0,.773-1.257,1.176,1.176,0,0,0-.322-.87,2.54,2.54,0,0,0-1.1-.58,18.981,18.981,0,0,0-2.384-.644,9.357,9.357,0,0,1-4.124-1.643,3.679,3.679,0,0,1-1.224-2.932,4.162,4.162,0,0,1,.838-2.545,5.28,5.28,0,0,1,2.288-1.772,8.325,8.325,0,0,1,3.351-.644,9.569,9.569,0,0,1,2.61.354,7.616,7.616,0,0,1,2.255.967,1.945,1.945,0,0,1,1.031,1.708,1.719,1.719,0,0,1-.354,1.1,1.1,1.1,0,0,1-.87.419,2.062,2.062,0,0,1-.709-.129q-.322-.161-.838-.451a11.631,11.631,0,0,0-1.611-.709,4.737,4.737,0,0,0-1.676-.258,3.323,3.323,0,0,0-1.9.483,1.538,1.538,0,0,0-.677,1.321,1.341,1.341,0,0,0,.709,1.224,10.151,10.151,0,0,0,2.739.838,15.626,15.626,0,0,1,3.383,1.031,3.853,3.853,0,0,1,1.74,1.45,4.109,4.109,0,0,1,.548,2.223,4.121,4.121,0,0,1-1.837,3.512A8.007,8.007,0,0,1,142.732,24.185Zm17.962-3.061q1.611.1,1.611,1.45a1.341,1.341,0,0,1-.644,1.192,3.016,3.016,0,0,1-1.772.322l-.87-.064q-5.413-.387-5.413-5.8V11.2h-1.611a2.114,2.114,0,0,1-1.353-.387,1.4,1.4,0,0,1-.451-1.128,1.4,1.4,0,0,1,.451-1.128,2.114,2.114,0,0,1,1.353-.387H153.6V5.207a1.812,1.812,0,0,1,.548-1.386,2.075,2.075,0,0,1,1.482-.516,2.029,2.029,0,0,1,1.45.516,1.812,1.812,0,0,1,.548,1.386V8.171h2.739a1.979,1.979,0,0,1,1.321.387,1.359,1.359,0,0,1,.483,1.128,1.359,1.359,0,0,1-.483,1.128,1.979,1.979,0,0,1-1.321.387h-2.739v7.314q0,2.384,2.191,2.545ZM173.2,7.849a1.735,1.735,0,0,1,1.321.354,1.573,1.573,0,0,1,.483,1.257,1.756,1.756,0,0,1-.419,1.289,2.573,2.573,0,0,1-1.514.548l-.967.1a3.976,3.976,0,0,0-2.8,1.289,4.266,4.266,0,0,0-.87,2.739v6.767a1.839,1.839,0,0,1-.58,1.45,2.417,2.417,0,0,1-2.9,0,1.9,1.9,0,0,1-.548-1.45V9.718a1.75,1.75,0,0,1,.548-1.386,2.141,2.141,0,0,1,1.418-.483,1.9,1.9,0,0,1,1.353.483,1.661,1.661,0,0,1,.516,1.321v1.289a4.8,4.8,0,0,1,1.8-2.191,5.679,5.679,0,0,1,2.707-.87ZM188.894,19.61a1.04,1.04,0,0,1,.87.419,1.689,1.689,0,0,1,.354,1.128,1.953,1.953,0,0,1-1.192,1.676,11.291,11.291,0,0,1-2.481,1,10.664,10.664,0,0,1-2.642.354,8.21,8.21,0,0,1-6.025-2.191A8.032,8.032,0,0,1,175.555,16a9.2,9.2,0,0,1,.967-4.285,7.062,7.062,0,0,1,2.707-2.9,7.8,7.8,0,0,1,4-1.031,7.14,7.14,0,0,1,3.705.934,6.336,6.336,0,0,1,2.449,2.642,8.767,8.767,0,0,1,.87,4.028q0,1.386-1.224,1.386h-9.505a5.142,5.142,0,0,0,1.257,3.287,4.269,4.269,0,0,0,3.093,1.031,5.712,5.712,0,0,0,1.8-.258,17.143,17.143,0,0,0,1.8-.709A3.556,3.556,0,0,1,188.894,19.61Zm-5.574-8.99a3.511,3.511,0,0,0-2.642,1.031,4.926,4.926,0,0,0-1.16,2.964H186.8a4.525,4.525,0,0,0-.967-2.964A3.164,3.164,0,0,0,183.32,10.62Zm17.053-2.835a6.467,6.467,0,0,1,4.865,1.643,6.71,6.71,0,0,1,1.611,4.93V22.22a1.872,1.872,0,0,1-.516,1.386,1.991,1.991,0,0,1-1.418.483,1.942,1.942,0,0,1-1.386-.516,1.83,1.83,0,0,1-.516-1.353v-.709a4.18,4.18,0,0,1-1.74,1.966,5.087,5.087,0,0,1-2.707.709,6.322,6.322,0,0,1-2.868-.644,5.1,5.1,0,0,1-2.03-1.772,4.478,4.478,0,0,1-.741-2.513,4.029,4.029,0,0,1,.87-2.739,5.421,5.421,0,0,1,2.9-1.45,26.262,26.262,0,0,1,5.51-.451h.806v-.741a3.236,3.236,0,0,0-.677-2.288,2.841,2.841,0,0,0-2.191-.741,6.594,6.594,0,0,0-1.9.29,22.161,22.161,0,0,0-2.288.773,3.221,3.221,0,0,1-1.224.419,1.261,1.261,0,0,1-.967-.419,1.638,1.638,0,0,1-.354-1.1,1.646,1.646,0,0,1,.258-.934,2.68,2.68,0,0,1,.934-.773,10.525,10.525,0,0,1,2.674-.967A14.1,14.1,0,0,1,200.373,7.785Zm-1,13.5a3.416,3.416,0,0,0,2.61-1.063,3.926,3.926,0,0,0,1.031-2.8v-.677h-.58a22.229,22.229,0,0,0-3.351.193,3.254,3.254,0,0,0-1.708.677,1.723,1.723,0,0,0-.516,1.321,2.261,2.261,0,0,0,.709,1.708A2.655,2.655,0,0,0,199.374,21.286Zm30.29-13.5a4.943,4.943,0,0,1,3.931,1.547q1.386,1.514,1.386,4.93v7.926a1.839,1.839,0,0,1-.58,1.45,2.111,2.111,0,0,1-1.45.483,2.188,2.188,0,0,1-1.45-.483,1.894,1.894,0,0,1-.548-1.45V14.261a3.839,3.839,0,0,0-.644-2.513,2.277,2.277,0,0,0-1.9-.773,3.134,3.134,0,0,0-2.513,1.1A4.29,4.29,0,0,0,224.959,15v7.185a1.839,1.839,0,0,1-.58,1.45,2.064,2.064,0,0,1-1.418.483,2.188,2.188,0,0,1-1.45-.483,1.839,1.839,0,0,1-.58-1.45V14.261a3.839,3.839,0,0,0-.644-2.513,2.277,2.277,0,0,0-1.9-.773,3.134,3.134,0,0,0-2.513,1.1,4.391,4.391,0,0,0-.9,2.932v7.185a1.839,1.839,0,0,1-.58,1.45,2.417,2.417,0,0,1-2.9,0,1.9,1.9,0,0,1-.548-1.45V9.718a1.7,1.7,0,0,1,.58-1.386,2.188,2.188,0,0,1,1.45-.483,1.9,1.9,0,0,1,1.353.483,1.613,1.613,0,0,1,.548,1.321v.773a5.082,5.082,0,0,1,1.966-1.966,5.953,5.953,0,0,1,2.868-.677,4.617,4.617,0,0,1,4.737,2.964,5.324,5.324,0,0,1,2.094-2.159A6.1,6.1,0,0,1,229.664,7.785Z" transform="translate(64.182 25.804)"/></g></svg>