<svg xmlns="http://www.w3.org/2000/svg" width="256.666" height="263.824" viewBox="0 0 256.666 263.824"><defs><style>.a{fill:#fff;}</style></defs><g transform="translate(-113.119 -177)"><g transform="translate(0)"><path class="a" d="M81.428,253.78A131.909,131.909,0,0,1,131.912,0c27.442,0,54.117,9.285,77.154,26.861a142.9,142.9,0,0,1,47.423,64.271L189.7,123.718,100.863,79.3a7.956,7.956,0,0,0-3.546-.839c-.116,0-.232.005-.349.01a7.917,7.917,0,0,0-7.557,7.906v93.113a7.922,7.922,0,0,0,7.557,7.906c.117.005.237.01.354.01a8.019,8.019,0,0,0,3.541-.839l53.268-26.634,38.228-19.117,64.307,31.368a142.823,142.823,0,0,1-47.382,64.6c-23.088,17.682-49.843,27.033-77.371,27.033A131.254,131.254,0,0,1,81.428,253.78ZM102.6,92.042l79.144,39.572L102.6,171.186Z" transform="translate(113.119 177)"/></g></g></svg>